<svg xmlns="http://www.w3.org/2000/svg" xmlns:ev="http://www.w3.org/2001/xml-events" xmlns:xlink="http://www.w3.org/1999/xlink" width="702.876" height="1131.514" class="st17" color-interpolation-filters="sRGB" viewBox="0 0 527.157 848.638" xml:space="preserve"><style type="text/css">.st1{fill:#212121;stroke:none;stroke-linecap:butt;stroke-width:1}.st2{stroke:#0c6206;stroke-dasharray:8.75,6.25;stroke-linecap:round;stroke-linejoin:round;stroke-width:1.25}.st3,.st4{stroke:#3cd700}.st3{marker-end:url(#mrkr4-14);stroke-linecap:round;stroke-linejoin:round;stroke-width:2.25}.st4{fill:#3cd700;fill-opacity:1;stroke-opacity:1;stroke-width:.47169811320755}.st5{stroke:#052a02;stroke-dasharray:7,5;stroke-linecap:round;stroke-linejoin:round;stroke-width:1}.st6{visibility:visible}.st7,.st8{stroke-linecap:butt}.st7{fill:#0c0c0c;fill-opacity:.6;filter:url(#filter_3.3333334922791);stroke:#0c0c0c;stroke-opacity:.6}.st8{fill:url(#grad0-64);stroke:#3cd700;stroke-width:1}.st9{fill:#15de10;font-family:Calibri;font-size:1.00001em}.st10{font-size:1em}.st11,.st12{fill:#073904;stroke:#3cd700;stroke-linecap:butt;stroke-width:1}.st12{fill:none;stroke:none}.st13{fill:#3cd700;font-family:Calibri;font-size:1.00001em;font-weight:700}.st14{font-size:1em;font-weight:400}.st15,.st16{stroke:#0c6206}.st15{marker-end:url(#mrkr4-269);stroke-dasharray:8.75,6.25;stroke-linecap:round;stroke-linejoin:round;stroke-width:1.25}.st16{fill:#0c6206;fill-opacity:1;stroke-opacity:1;stroke-width:.3315649867374}.st17{fill:none;fill-rule:evenodd;font-size:12px;overflow:visible;stroke-linecap:square;stroke-miterlimit:3}</style><defs id="Patterns_And_Gradients"><linearGradient id="grad0-64" x1="0" x2="1" y1="0" y2="0" gradientTransform="rotate(90 0.5 0.5)"><stop offset="0" stop-color="#073804" stop-opacity="1"/><stop offset="1" stop-color="#042b02" stop-opacity="1"/></linearGradient></defs><defs id="Markers"><g id="lend4"><path d="M 2 1 L 0 0 L 2 -1 L 2 1" style="stroke:none"/></g><marker id="mrkr4-14" class="st4" markerUnits="strokeWidth" orient="auto" overflow="visible" refX="-4.24"><use transform="scale(-2.12,-2.12)" xlink:href="#lend4"/></marker><marker id="mrkr4-269" class="st16" markerUnits="strokeWidth" orient="auto" overflow="visible" refX="-6.032"><use transform="scale(-3.016,-3.016)" xlink:href="#lend4"/></marker></defs><defs id="Filters"><filter id="filter_3.3333334922791"><feGaussianBlur stdDeviation="3.333"/></filter></defs><g><title>VBackground-1</title><g id="shape1-1"><title>Solid</title><rect width="527.157" height="848.638" x="0" y="0" class="st1"/></g></g><g><title>Page-1</title><g id="shape103-3" transform="translate(199.89,-128.975)"><title>Dynamic connector.103</title><path d="M0 841.55 L131.93 841.55 A3 3 0 1 1 137.93 841.55 L241.23 841.55" class="st2"/></g><g id="shape104-6" transform="translate(334.819,-291.967)"><title>Dynamic connector.104</title><path d="M0 848.64 L106.3 848.64 L106.3 1004.54" class="st2"/></g><g id="shape50-9" transform="translate(120.661,-114.093)"><title>Dynamic connector.50</title><path d="M0 848.64 L0 869.9 L168.09 869.9 L168.09 888" class="st3"/></g><g id="shape36-15" transform="translate(313.559,-539.29)"><title>Dynamic connector.36</title><path d="M0 848.64 L0 918.09 L-112.49 918.09" class="st3"/></g><g id="shape39-20" transform="translate(113.575,-447.872)"><title>Dynamic connector.39</title><path d="M7.09 848.64 L7.09 866.03" class="st3"/></g><g id="shape40-25" transform="translate(113.575,-377.006)"><title>Dynamic connector.40</title><path d="M7.09 848.64 L7.09 864.61" class="st3"/></g><g id="shape42-30" transform="translate(113.575,-307.557)"><title>Dynamic connector.42</title><path d="M7.09 848.64 L7.09 864.61" class="st3"/></g><g id="shape22-35" transform="translate(113.575,-691.652)"><title>Dynamic connector.22</title><path d="M7.09 848.64 L7.09 870.28" class="st3"/></g><g id="shape32-40" transform="translate(113.575,-616.534)"><title>Dynamic connector.32</title><path d="M7.09 848.64 L7.09 857.81" class="st3"/></g><g id="shape28-45" transform="translate(320.646,-695.195)"><title>Dynamic connector.28</title><path d="M0 848.64 L0 905.33 L-119.58 905.33" class="st3"/></g><g id="shape16-50" transform="translate(113.575,-773.857)"><title>Dynamic connector</title><path d="M7.09 848.64 L7.09 870.28" class="st3"/></g><g id="shape63-55" transform="translate(384.425,-717.164)"><title>Dynamic connector.63</title><path d="M0 848.64 L69.51 848.64 L69.51 927.3" class="st5"/></g><g id="shape1-58" transform="translate(49.7953,-773.857)"><title>Process</title><desc>Target Availability Check, Banner Grabbing</desc><g id="shadow1-59" class="st6" transform="matrix(1,0,0,1,0,3.00236)"><rect width="141.732" height="43.937" x="0" y="804.701" class="st7"/></g><rect width="141.732" height="43.937" x="0" y="804.701" class="st8"/><text x="9.65" y="823.07" class="st9">Target Availability Check, <tspan x="29.58" class="st10" dy="1.2em">Banner Grabbing</tspan></text></g><g id="shape2-67" transform="translate(256.866,-695.195)"><title>Process.2</title><desc>Web Technologies Detection (Wappalyzer)</desc><g id="shadow2-68" class="st6" transform="matrix(1,0,0,1,0,3.00236)"><rect width="127.559" height="43.937" x="0" y="804.701" class="st7"/></g><rect width="127.559" height="43.937" x="0" y="804.701" class="st8"/><text x="18.96" y="823.07" class="st9">Web Technologies <tspan x="5.94" class="st10" dy="1.2em">Detection (Wappalyzer)</tspan></text></g><g id="shape6-75" transform="translate(49.7953,-616.534)"><title>Process.6</title><desc>Reconnaissance Checks</desc><g id="shadow6-76" class="st6" transform="matrix(1,0,0,1,0,3.00236)"><rect width="141.732" height="43.937" x="0" y="804.701" class="st7"/></g><rect width="141.732" height="43.937" x="0" y="804.701" class="st8"/><text x="13.82" y="830.27" class="st9">Reconnaissance Checks</text></g><g id="shape7-82" transform="translate(242.693,-539.29)"><title>Process.7</title><desc>Vulnerability/CVE Lookup (cvedetails/vulners)</desc><g id="shadow7-83" class="st6" transform="matrix(1,0,0,1,0,3.00236)"><rect width="141.732" height="43.937" x="0" y="804.701" class="st7"/></g><rect width="141.732" height="43.937" x="0" y="804.701" class="st8"/><text x="8.73" y="823.07" class="st9">Vulnerability/CVE Lookup <tspan x="22.74" class="st10" dy="1.2em">(cvedetails/vulners)</tspan></text></g><g id="shape8-90" transform="translate(49.7953,-377.006)"><title>Process.8</title><desc>Vulnerability Scanning</desc><g id="shadow8-91" class="st6" transform="matrix(1,0,0,1,0,3.00236)"><rect width="141.732" height="43.937" x="0" y="804.701" class="st7"/></g><rect width="141.732" height="43.937" x="0" y="804.701" class="st8"/><text x="16.64" y="830.27" class="st9">Vulnerability Scanning</text></g><g id="shape9-97" transform="translate(49.7953,-447.872)"><title>Process.9</title><desc>Default/Common Credentials Checks</desc><g id="shadow9-98" class="st6" transform="matrix(1,0,0,1,0,3.00236)"><rect width="141.732" height="43.937" x="0" y="804.701" class="st7"/></g><rect width="141.732" height="43.937" x="0" y="804.701" class="st8"/><text x="28.36" y="823.07" class="st9">Default/Common <tspan x="25.01" class="st10" dy="1.2em">Credentials Checks</tspan></text></g><g id="shape10-105" transform="translate(49.7953,-307.557)"><title>Process.10</title><desc>Exploitation Attempts</desc><g id="shadow10-106" class="st6" transform="matrix(1,0,0,1,0,3.00236)"><rect width="141.732" height="43.937" x="0" y="804.701" class="st7"/></g><rect width="141.732" height="43.937" x="0" y="804.701" class="st8"/><text x="17.55" y="830.27" class="st9">Exploitation Attempts</text></g><g id="shape11-112" transform="translate(263.953,-219.684)"><title>Process.11</title><desc>Bruteforce Credentials</desc><g id="shadow11-113" class="st6" transform="matrix(1,0,0,1,0,3.00236)"><rect width="141.732" height="43.937" x="0" y="804.701" class="st7"/></g><rect width="141.732" height="43.937" x="0" y="804.701" class="st8"/><text x="15.85" y="830.27" class="st9">Bruteforce Credentials</text></g><g id="shape12-119" transform="translate(41.4331,-114.093)"><title>Process.12</title><desc>Post-Authentication Checks</desc><g id="shadow12-120" class="st6" transform="matrix(1,0,0,1,0,3.00236)"><rect width="158.457" height="43.937" x="0" y="804.701" class="st7"/></g><rect width="158.457" height="43.937" x="0" y="804.701" class="st8"/><text x="12.04" y="830.27" class="st9">Post-Authentication Checks</text></g><g id="shape13-126" transform="translate(54.7559,-691.652)"><title>Decision</title><desc>HTTP Service ?</desc><g id="shadow13-127" class="st6"><path d="M0 823.13 L65.91 797.61 L131.81 823.13 L65.91 848.64 L0 823.13 Z" class="st7" transform="matrix(1,0,0,1,0,3.00236)"/></g><path d="M0 823.13 L65.91 797.61 L131.81 823.13 L65.91 848.64 L0 823.13 Z" class="st8"/><text x="30.28" y="826.73" class="st9">HTTP Service ?</text></g><g id="shape17-133" transform="translate(186.567,-710.077)"><title>Dynamic connector.17</title><path d="M0 841.55 L60.76 841.55" class="st3"/></g><g id="shape25-138" transform="translate(49.7953,-524.691)"><title>Decision.25</title><desc>Any Product Name+Version detected ?</desc><g id="shadow25-139" class="st6"><path d="M0 812.07 L70.87 775.5 L141.73 812.07 L70.87 848.64 L0 812.07 Z" class="st7" transform="matrix(1,0,0,1,0,3.00236)"/></g><path d="M0 812.07 L70.87 775.5 L141.73 812.07 L70.87 848.64 L0 812.07 Z" class="st8"/><text x="40.96" y="801.27" class="st9">Any Product <tspan x="34.83" class="st10" dy="1.2em">Name+Version </tspan><tspan x="44.91" class="st10" dy="1.2em">detected ?</tspan></text></g><g id="shape33-147" transform="translate(191.528,-554.172)"><title>Dynamic connector.33</title><path d="M0 841.55 L41.63 841.55" class="st3"/></g><g id="shape35-152" transform="translate(113.575,-524.691)"><title>Dynamic connector.35</title><path d="M7.09 848.64 L7.09 871.98" class="st3"/></g><g id="shape41-157" transform="translate(34.3465,-201.258)"><title>Decision.41</title><desc>Valid Credentials known/already found ?</desc><g id="shadow41-158" class="st6"><path d="M0 808.24 L86.31 767.85 L172.63 808.24 L86.31 848.64 L0 808.24 Z" class="st7" transform="matrix(1,0,0,1,0,3.00236)"/></g><path d="M0 808.24 L86.31 767.85 L172.63 808.24 L86.31 848.64 L0 808.24 Z" class="st8"/><text x="45.22" y="797.44" class="st9">Valid Credentials<tspan x="49.44" class="st10" dy="1.2em">known/already </tspan><tspan x="67.73" class="st10" dy="1.2em">found ?</tspan></text></g><g id="shape43-166" transform="translate(206.976,-234.565)"><title>Dynamic connector.43</title><path d="M0 841.55 L47.44 841.55" class="st3"/></g><g id="shape46-171" transform="translate(263.953,-142.775)"><title>Decision.46</title><desc>Bruteforce success ?</desc><g id="shadow46-172" class="st6"><path d="M0 819.58 L70.87 790.53 L141.73 819.58 L70.87 848.64 L0 819.58 Z" class="st7" transform="matrix(1,0,0,1,0,3.00236)"/></g><path d="M0 819.58 L70.87 790.53 L141.73 819.58 L70.87 848.64 L0 819.58 Z" class="st8"/><text x="21.01" y="823.18" class="st9">Bruteforce success ?</text></g><g id="shape47-178" transform="translate(113.575,-201.258)"><title>Dynamic connector.47</title><path d="M7.09 848.64 L7.09 882.33" class="st3"/></g><g id="shape49-183" transform="translate(178.913,-36.8489)"><title>Start/End</title><desc>End / Move to next target if available</desc><g id="shadow49-184" class="st6"><path d="M14.17 848.64 L205.51 848.64 A14.1732 14.1732 -180 1 0 205.51 820.29 L14.17 820.29 A14.1732 14.1732 -180 1 0 14.17 848.64 Z" class="st7" transform="matrix(1,0,0,1,0,3.00236)"/></g><path d="M14.17 848.64 L205.51 848.64 A14.1732 14.1732 -180 1 0 205.51 820.29 L14.17 820.29 A14.1732 14.1732 -180 1 0 14.17 848.64 Z" class="st8"/><text x="19.28" y="838.06" class="st9">End / Move to next target if available</text></g><g id="shape51-190" transform="translate(327.732,-219.684)"><title>Dynamic connector.51</title><path d="M7.09 848.64 L7.09 857.9" class="st3"/></g><g id="shape52-195" transform="translate(263.953,-171.83)"><title>Dynamic connector.52</title><path d="M0 848.64 L-21.26 848.64 L-21.26 884.41 L-54.52 884.41" class="st3"/></g><g id="group61-200" transform="translate(292.724,-334.628)"><title>Database</title><g id="shape62-201" transform="translate(4.03933,0)"><title>Sheet.62</title><g id="shadow62-202" class="st6"><path d="M0 770.08 L0 834.65 A38.0551 13.9829 -180 1 0 76.11 834.65 L76.11 769.93 A38.0551 13.9829 0 0 1 0 770.08 ZM76.11 769.93 A38.0551 13.9829 -180 1 0 0 769.93 A38.0551 13.9829 -180 1 0 76.11 769.93 Z" class="st7" transform="matrix(1,0,0,1,0,3.00236)"/></g><path d="M0 770.08 L0 834.65 A38.0551 13.9829 -180 1 0 76.11 834.65 L76.11 769.93 A38.0551 13.9829 0 0 1 0 770.08 ZM76.11 769.93 A38.0551 13.9829 -180 1 0 0 769.93 A38.0551 13.9829 -180 1 0 76.11 769.93 Z" class="st11"/></g></g><g id="shape80-206" transform="translate(384.127,-304.108)"><title>Sheet.80</title><desc>Local Database: - Services - Hosts - Options - Products - Cre...</desc><rect width="113.684" height="123.213" x="0" y="725.424" class="st12"/><text x="2" y="738.22" class="st13">Local Database:<tspan x="2" class="st14" dy="1.2em">-</tspan><tspan class="st14"> </tspan><tspan class="st14">Services</tspan><tspan x="2" class="st14" dy="1.2em">-</tspan><tspan class="st14"> </tspan><tspan class="st14">Hosts</tspan><tspan x="2" class="st14" dy="1.2em">-</tspan><tspan class="st14"> </tspan><tspan class="st14">Options</tspan><tspan x="2" class="st14" dy="1.2em">-</tspan><tspan class="st14"> </tspan><tspan class="st14">Products</tspan><tspan x="2" class="st14" dy="1.2em">-</tspan><tspan class="st14"> </tspan><tspan class="st14">Credentials</tspan><tspan x="2" class="st14" dy="1.2em">-</tspan><tspan class="st14"> </tspan><tspan class="st14">Vulnerabilities</tspan><tspan x="2" class="st14" dy="1.2em">-</tspan><tspan class="st14"> </tspan><tspan class="st14">Checks outputs</tspan></text></g><g id="shape53-230" transform="translate(334.819,-142.775)"><title>Dynamic connector.53</title><path d="M0 848.64 L0 897.87 L-46.06 897.87 L-46.06 916.68" class="st3"/></g><g id="shape83-235" transform="translate(208.279,-725.337)"><title>Sheet.83</title><desc>Yes</desc><rect width="26.875" height="12" x="0" y="836.638" class="st12"/><text x="5.18" y="846.24" class="st9">Yes</text></g><g id="shape85-238" transform="translate(124.085,-670.817)"><title>Sheet.85</title><desc>No</desc><rect width="26.875" height="12" x="0" y="836.638" class="st12"/><text x="6.4" y="846.24" class="st9">No</text></g><g id="shape86-241" transform="translate(320.646,-490.392)"><title>Sheet.86</title><desc>Continuously update database</desc><rect width="77.953" height="12" x="0" y="836.638" class="st12"/><text x="12.03" y="831.84" class="st9">Continuously <tspan x="41.3" class="st10" dy="1.2em">update </tspan><tspan x="31.42" class="st10" dy="1.2em">database</tspan></text></g><g id="shape87-246" transform="translate(200.173,-569.432)"><title>Sheet.87</title><desc>Yes</desc><rect width="26.875" height="12" x="0" y="836.638" class="st12"/><text x="5.18" y="846.24" class="st9">Yes</text></g><g id="shape88-249" transform="translate(121.847,-506.739)"><title>Sheet.88</title><desc>No</desc><rect width="26.875" height="12" x="0" y="836.638" class="st12"/><text x="6.4" y="846.24" class="st9">No</text></g><g id="shape89-252" transform="translate(215.818,-249.447)"><title>Sheet.89</title><desc>No</desc><rect width="26.875" height="12" x="0" y="836.638" class="st12"/><text x="6.4" y="846.24" class="st9">No</text></g><g id="shape90-255" transform="translate(122.593,-178.581)"><title>Sheet.90</title><desc>Yes</desc><rect width="26.875" height="12" x="0" y="836.638" class="st12"/><text x="5.18" y="846.24" class="st9">Yes</text></g><g id="shape91-258" transform="translate(201.644,-166.581)"><title>Sheet.91</title><desc>Yes</desc><rect width="26.875" height="12" x="0" y="836.638" class="st12"/><text x="5.18" y="846.24" class="st9">Yes</text></g><g id="shape92-261" transform="translate(343.377,-114.093)"><title>Sheet.92</title><desc>No</desc><rect width="26.875" height="12" x="0" y="836.638" class="st12"/><text x="6.4" y="846.24" class="st9">No</text></g><g id="shape93-264" transform="translate(384.425,-717.164)"><title>Dynamic connector.93</title><path d="M0 848.64 L21.26 848.64 L21.26 1095.85 L-49.61 1095.85 L-49.61 1130.94" class="st15"/></g><g id="shape94-270" transform="translate(320.646,-630.707)"><title>Dynamic connector.94</title><path d="M0 841.55 L85.04 841.55" class="st2"/></g><g id="shape95-273" transform="translate(384.425,-568.345)"><title>Dynamic connector.95</title><path d="M0 855.72 L21.26 855.72" class="st2"/></g><g id="shape96-276" transform="translate(313.559,-469.841)"><title>Dynamic connector.96</title><path d="M0 848.64 L21.26 848.64 L21.26 869.9" class="st2"/></g><g id="shape97-279" transform="translate(191.528,-398.975)"><title>Dynamic connector.97</title><path d="M0 848.64 L65.34 848.64 L65.34 866.64 L97.7 866.64" class="st15"/></g><g id="shape99-284" transform="translate(191.528,-329.526)"><title>Dynamic connector.99</title><path d="M0 848.64 L65.34 848.64 L65.34 797.19" class="st2"/></g><g id="shape100-287" transform="translate(327.732,-263.621)"><title>Dynamic connector.100</title><path d="M7.09 848.64 L7.09 785.17" class="st15"/></g></g></svg>