<svg xmlns="http://www.w3.org/2000/svg" xmlns:ev="http://www.w3.org/2001/xml-events" xmlns:xlink="http://www.w3.org/1999/xlink" width="808.703" height="1112.621" class="st18" color-interpolation-filters="sRGB" viewBox="0 0 606.528 834.464" xml:space="preserve"><style type="text/css">.st1{stroke:#4ec0fe;stroke-dasharray:7,5;stroke-linecap:round;stroke-linejoin:round;stroke-width:1}.st2,.st3{stroke:#00466c}.st2{marker-end:url(#mrkr4-9);stroke-linecap:round;stroke-linejoin:round;stroke-width:2.25}.st3{fill:#00466c;fill-opacity:1;stroke-opacity:1;stroke-width:.47169811320755}.st4,.st5{stroke:#4ec0fe}.st4{marker-end:url(#mrkr4-15);stroke-dasharray:7,5;stroke-linecap:round;stroke-linejoin:round;stroke-width:1}.st5{fill:#4ec0fe;fill-opacity:1;stroke-opacity:1;stroke-width:.28409090909091}.st6{fill:#fff;stroke:none;stroke-linecap:butt;stroke-width:7.2}.st7{fill:#00466c;font-family:Calibri;font-size:1.00001em}.st8{visibility:visible}.st10,.st9{stroke-linecap:butt}.st9{fill:#000;fill-opacity:.6;filter:url(#filter_3.3333334922791);stroke:#000;stroke-opacity:.6}.st10{fill:url(#grad0-75);stroke:#00304b;stroke-width:1}.st11{fill:#fff;font-family:Calibri;font-size:1.00001em}.st12{font-size:1em}.st13,.st14,.st15{fill:#fff;stroke:none;stroke-linecap:butt}.st14,.st15{fill:#0078b9;stroke:#00304a;stroke-width:1}.st15{fill:none;stroke:none}.st16{fill:#00466c;font-family:Calibri;font-size:1.00001em;font-weight:700}.st17{font-size:1em;font-weight:400}.st18{fill:none;fill-rule:evenodd;font-size:12px;overflow:visible;stroke-linecap:square;stroke-miterlimit:3}</style><defs id="Patterns_And_Gradients"><linearGradient id="grad0-75" x1="0" x2="1" y1="0" y2="0" gradientTransform="rotate(90 0.5 0.5)"><stop offset="0" stop-color="#0177b7" stop-opacity="1"/><stop offset="1" stop-color="#005c8f" stop-opacity="1"/></linearGradient></defs><defs id="Markers"><g id="lend4"><path d="M 2 1 L 0 0 L 2 -1 L 2 1" style="stroke:none"/></g><marker id="mrkr4-9" class="st3" markerUnits="strokeWidth" orient="auto" overflow="visible" refX="-4.24"><use transform="scale(-2.12,-2.12)" xlink:href="#lend4"/></marker><marker id="mrkr4-15" class="st5" markerUnits="strokeWidth" orient="auto" overflow="visible" refX="-7.04"><use transform="scale(-3.52,-3.52)" xlink:href="#lend4"/></marker></defs><defs id="Filters"><filter id="filter_3.3333334922791"><feGaussianBlur stdDeviation="3.333"/></filter></defs><g><title>Page-1</title><g id="shape72-1" transform="translate(199.89,-121.888)"><title>Dynamic connector.72</title><path d="M0 834.46 L131.93 834.46 A3 3 0 1 1 137.93 834.46 L254.27 834.46 L254.27 729.58" class="st1"/></g><g id="shape50-4" transform="translate(120.661,-99.9198)"><title>Dynamic connector.50</title><path d="M0 834.46 L0 852.46 L168.09 852.46 L168.09 859.65" class="st2"/></g><g id="shape66-10" transform="translate(384.425,-539.998)"><title>Dynamic connector.66</title><path d="M0 827.38 L76.07 827.38" class="st4"/></g><g id="shape67-16" transform="translate(191.528,-455.668)"><title>Dynamic connector.67</title><path d="M0 834.46 L262.63 834.46 L262.63 743.05" class="st1"/></g><g id="shape36-19" transform="translate(313.559,-525.117)"><title>Dynamic connector.36</title><path d="M0 834.46 L0 903.91 L-112.49 903.91" class="st2"/></g><g id="shape39-24" transform="translate(113.575,-433.699)"><title>Dynamic connector.39</title><path d="M7.09 834.46 L7.09 851.85" class="st2"/></g><g id="shape40-29" transform="translate(113.575,-362.833)"><title>Dynamic connector.40</title><path d="M7.09 834.46 L7.09 850.44" class="st2"/></g><g id="shape42-34" transform="translate(113.575,-293.384)"><title>Dynamic connector.42</title><path d="M7.09 834.46 L7.09 850.44" class="st2"/></g><g id="shape65-39" transform="translate(191.528,-624.329)"><title>Dynamic connector.65</title><path d="M0 834.46 L262.35 834.46 L262.35 911.71 L268.97 911.71" class="st4"/></g><g id="shape22-44" transform="translate(113.575,-677.479)"><title>Dynamic connector.22</title><desc>No</desc><path d="M7.09 834.46 L7.09 856.11" class="st2"/><rect width="14.074" height="14.4" x="1.608" y="840.021" class="st6"/><text x="1.61" y="850.82" class="st7">No</text></g><g id="shape32-51" transform="translate(113.575,-602.361)"><title>Dynamic connector.32</title><path d="M7.09 834.46 L7.09 843.63" class="st2"/></g><g id="shape28-56" transform="translate(320.646,-681.022)"><title>Dynamic connector.28</title><path d="M0 834.46 L0 891.16 L-119.58 891.16" class="st2"/></g><g id="shape16-61" transform="translate(113.575,-759.683)"><title>Dynamic connector</title><path d="M7.09 834.46 L7.09 856.11" class="st2"/></g><g id="shape63-66" transform="translate(384.425,-702.991)"><title>Dynamic connector.63</title><path d="M0 834.46 L69.51 834.46 L69.51 913.13" class="st1"/></g><g id="shape1-69" transform="translate(49.7953,-759.683)"><title>Process</title><desc>Target Availability Check, Banner Grabbing</desc><g id="shadow1-70" class="st8" transform="matrix(1,0,0,1,0,3.00236)"><rect width="141.732" height="43.937" x="0" y="790.528" class="st9"/></g><rect width="141.732" height="43.937" x="0" y="790.528" class="st10"/><text x="9.65" y="808.9" class="st11">Target Availability Check, <tspan x="29.58" class="st12" dy="1.2em">Banner Grabbing</tspan></text></g><g id="shape2-78" transform="translate(256.866,-681.022)"><title>Process.2</title><desc>Web Technologies Detection (Wappalyzer)</desc><g id="shadow2-79" class="st8" transform="matrix(1,0,0,1,0,3.00236)"><rect width="127.559" height="43.937" x="0" y="790.528" class="st9"/></g><rect width="127.559" height="43.937" x="0" y="790.528" class="st10"/><text x="18.96" y="808.9" class="st11">Web Technologies <tspan x="5.94" class="st12" dy="1.2em">Detection (Wappalyzer)</tspan></text></g><g id="shape6-86" transform="translate(49.7953,-602.361)"><title>Process.6</title><desc>Reconnaissance Checks</desc><g id="shadow6-87" class="st8" transform="matrix(1,0,0,1,0,3.00236)"><rect width="141.732" height="43.937" x="0" y="790.528" class="st9"/></g><rect width="141.732" height="43.937" x="0" y="790.528" class="st10"/><text x="13.82" y="816.1" class="st11">Reconnaissance Checks</text></g><g id="shape7-93" transform="translate(242.693,-525.117)"><title>Process.7</title><desc>Vulnerability/CVE Lookup (cvedetails/vulners)</desc><g id="shadow7-94" class="st8" transform="matrix(1,0,0,1,0,3.00236)"><rect width="141.732" height="43.937" x="0" y="790.528" class="st9"/></g><rect width="141.732" height="43.937" x="0" y="790.528" class="st10"/><text x="8.73" y="808.9" class="st11">Vulnerability/CVE Lookup <tspan x="22.74" class="st12" dy="1.2em">(cvedetails/vulners)</tspan></text></g><g id="shape8-101" transform="translate(49.7953,-362.833)"><title>Process.8</title><desc>Vulnerability Scanning</desc><g id="shadow8-102" class="st8" transform="matrix(1,0,0,1,0,3.00236)"><rect width="141.732" height="43.937" x="0" y="790.528" class="st9"/></g><rect width="141.732" height="43.937" x="0" y="790.528" class="st10"/><text x="16.64" y="816.1" class="st11">Vulnerability Scanning</text></g><g id="shape9-108" transform="translate(49.7953,-433.699)"><title>Process.9</title><desc>Default/Common Credentials Checks</desc><g id="shadow9-109" class="st8" transform="matrix(1,0,0,1,0,3.00236)"><rect width="141.732" height="43.937" x="0" y="790.528" class="st9"/></g><rect width="141.732" height="43.937" x="0" y="790.528" class="st10"/><text x="28.36" y="808.9" class="st11">Default/Common <tspan x="25.01" class="st12" dy="1.2em">Credentials Checks</tspan></text></g><g id="shape10-116" transform="translate(49.7953,-293.384)"><title>Process.10</title><desc>Exploitation Attempts</desc><g id="shadow10-117" class="st8" transform="matrix(1,0,0,1,0,3.00236)"><rect width="141.732" height="43.937" x="0" y="790.528" class="st9"/></g><rect width="141.732" height="43.937" x="0" y="790.528" class="st10"/><text x="17.55" y="816.1" class="st11">Exploitation Attempts</text></g><g id="shape11-123" transform="translate(263.953,-205.51)"><title>Process.11</title><desc>Bruteforce Credentials</desc><g id="shadow11-124" class="st8" transform="matrix(1,0,0,1,0,3.00236)"><rect width="141.732" height="43.937" x="0" y="790.528" class="st9"/></g><rect width="141.732" height="43.937" x="0" y="790.528" class="st10"/><text x="15.85" y="816.1" class="st11">Bruteforce Credentials</text></g><g id="shape12-130" transform="translate(41.4331,-99.9198)"><title>Process.12</title><desc>Post-Authentication Checks</desc><g id="shadow12-131" class="st8" transform="matrix(1,0,0,1,0,3.00236)"><rect width="158.457" height="43.937" x="0" y="790.528" class="st9"/></g><rect width="158.457" height="43.937" x="0" y="790.528" class="st10"/><text x="12.04" y="816.1" class="st11">Post-Authentication Checks</text></g><g id="shape13-137" transform="translate(54.7559,-677.479)"><title>Decision</title><desc>HTTP Service ?</desc><g id="shadow13-138" class="st8"><path d="M0 808.95 L65.91 783.44 L131.81 808.95 L65.91 834.46 L0 808.95 Z" class="st9" transform="matrix(1,0,0,1,0,3.00236)"/></g><path d="M0 808.95 L65.91 783.44 L131.81 808.95 L65.91 834.46 L0 808.95 Z" class="st10"/><text x="30.28" y="812.55" class="st11">HTTP Service ?</text></g><g id="shape17-144" transform="translate(186.567,-695.904)"><title>Dynamic connector.17</title><desc>Yes</desc><path d="M0 827.38 L60.76 827.38" class="st2"/><rect width="16.512" height="14.4" x="26.894" y="820.18" class="st13"/><text x="26.89" y="830.98" class="st7">Yes</text></g><g id="shape25-151" transform="translate(49.7953,-510.518)"><title>Decision.25</title><desc>Any Product Name+Version detected ?</desc><g id="shadow25-152" class="st8"><path d="M0 797.9 L70.87 761.33 L141.73 797.9 L70.87 834.46 L0 797.9 Z" class="st9" transform="matrix(1,0,0,1,0,3.00236)"/></g><path d="M0 797.9 L70.87 761.33 L141.73 797.9 L70.87 834.46 L0 797.9 Z" class="st10"/><text x="40.96" y="787.1" class="st11">Any Product <tspan x="34.83" class="st12" dy="1.2em">Name+Version </tspan><tspan x="44.91" class="st12" dy="1.2em">detected ?</tspan></text></g><g id="shape33-160" transform="translate(191.528,-539.998)"><title>Dynamic connector.33</title><desc>Yes</desc><path d="M0 827.38 L41.63 827.38" class="st2"/><rect width="16.512" height="14.4" x="17.327" y="820.178" class="st6"/><text x="17.33" y="830.98" class="st7">Yes</text></g><g id="shape35-167" transform="translate(113.575,-510.518)"><title>Dynamic connector.35</title><desc>No</desc><path d="M7.09 834.46 L7.09 857.81" class="st2"/><rect width="14.074" height="14.4" x="1.608" y="840.304" class="st6"/><text x="1.61" y="851.1" class="st7">No</text></g><g id="shape41-174" transform="translate(34.3465,-187.085)"><title>Decision.41</title><desc>Valid Credentials known/already found ?</desc><g id="shadow41-175" class="st8"><path d="M0 794.07 L86.31 753.68 L172.63 794.07 L86.31 834.46 L0 794.07 Z" class="st9" transform="matrix(1,0,0,1,0,3.00236)"/></g><path d="M0 794.07 L86.31 753.68 L172.63 794.07 L86.31 834.46 L0 794.07 Z" class="st10"/><text x="45.22" y="783.27" class="st11">Valid Credentials<tspan x="49.44" class="st12" dy="1.2em">known/already </tspan><tspan x="67.73" class="st12" dy="1.2em">found ?</tspan></text></g><g id="shape43-183" transform="translate(206.976,-220.392)"><title>Dynamic connector.43</title><desc>No</desc><path d="M0 827.38 L47.44 827.38" class="st2"/><rect width="14.074" height="14.4" x="18.758" y="819.469" class="st6"/><text x="18.76" y="830.27" class="st7">No</text></g><g id="shape46-190" transform="translate(263.953,-128.602)"><title>Decision.46</title><desc>Bruteforce success ?</desc><g id="shadow46-191" class="st8"><path d="M0 805.41 L70.87 776.35 L141.73 805.41 L70.87 834.46 L0 805.41 Z" class="st9" transform="matrix(1,0,0,1,0,3.00236)"/></g><path d="M0 805.41 L70.87 776.35 L141.73 805.41 L70.87 834.46 L0 805.41 Z" class="st10"/><text x="21.01" y="809.01" class="st11">Bruteforce success ?</text></g><g id="shape47-197" transform="translate(113.575,-187.085)"><title>Dynamic connector.47</title><desc>Yes</desc><path d="M7.09 834.46 L7.09 868.15" class="st2"/><rect width="16.512" height="14.4" x=".39" y="845.69" class="st6"/><text x=".39" y="856.49" class="st7">Yes</text></g><g id="shape49-204" transform="translate(178.913,-36.8489)"><title>Start/End</title><desc>End / Move to next target if available</desc><g id="shadow49-205" class="st8"><path d="M14.17 834.46 L205.51 834.46 A14.1732 14.1732 -180 1 0 205.51 806.12 L14.17 806.12 A14.1732 14.1732 -180 1 0 14.17 834.46 Z" class="st9" transform="matrix(1,0,0,1,0,3.00236)"/></g><path d="M14.17 834.46 L205.51 834.46 A14.1732 14.1732 -180 1 0 205.51 806.12 L14.17 806.12 A14.1732 14.1732 -180 1 0 14.17 834.46 Z" class="st10"/><text x="19.28" y="823.89" class="st11">End / Move to next target if available</text></g><g id="shape51-211" transform="translate(327.732,-205.51)"><title>Dynamic connector.51</title><path d="M7.09 834.46 L7.09 843.72" class="st2"/></g><g id="shape52-216" transform="translate(263.953,-157.657)"><title>Dynamic connector.52</title><desc>Yes</desc><path d="M0 834.46 L-18 834.46 L-18 870.23 L-54.52 870.23" class="st2"/><rect width="16.512" height="14.4" x="-26.256" y="846.451" class="st6"/><text x="-26.26" y="857.25" class="st7">Yes</text></g><g id="group61-223" transform="translate(463.497,-500.739)"><title>Database</title><g id="shape62-224" transform="translate(4.03933,1.13687E-13)"><title>Sheet.62</title><g id="shadow62-225" class="st8"><path d="M0 755.91 L0 820.48 A38.0551 13.9829 -180 1 0 76.11 820.48 L76.11 755.75 A38.0551 13.9829 0 0 1 0 755.91 ZM76.11 755.75 A38.0551 13.9829 -180 1 0 0 755.75 A38.0551 13.9829 -180 1 0 76.11 755.75 Z" class="st9" transform="matrix(1,0,0,1,0,3.00236)"/></g><path d="M0 755.91 L0 820.48 A38.0551 13.9829 -180 1 0 76.11 820.48 L76.11 755.75 A38.0551 13.9829 0 0 1 0 755.91 ZM76.11 755.75 A38.0551 13.9829 -180 1 0 0 755.75 A38.0551 13.9829 -180 1 0 76.11 755.75 Z" class="st14"/></g></g><g id="shape68-229" transform="translate(191.528,-384.802)"><title>Dynamic connector.68</title><path d="M0 834.46 L262.63 834.46 L262.63 763.6" class="st1"/></g><g id="shape69-232" transform="translate(191.528,-315.353)"><title>Dynamic connector.69</title><path d="M0 834.46 L262.63 834.46 L262.63 765.02" class="st1"/></g><g id="shape71-235" transform="translate(405.685,-227.479)"><title>Dynamic connector.71</title><path d="M0 834.46 L48.47 834.46 L48.47 746.59" class="st1"/></g><g id="shape75-238" transform="translate(355.291,-622.297)"><title>Sheet.75</title><desc>Continuously update database</desc><rect width="100" height="38.174" x="0" y="796.29" class="st15"/><text x="17.23" y="811.78" class="st16">Continuously <tspan x="8.1" class="st12" dy="1.2em">update database</tspan></text></g><g id="shape80-242" transform="translate(463.497,-367.179)"><title>Sheet.80</title><desc>Local Database: - Services - Hosts - Options - Products - Cre...</desc><rect width="113.684" height="123.213" x="0" y="711.251" class="st15"/><text x="2" y="724.05" class="st16">Local Database:<tspan x="2" class="st17" dy="1.2em">-</tspan><tspan class="st17"> </tspan><tspan class="st17">Services</tspan><tspan x="2" class="st17" dy="1.2em">-</tspan><tspan class="st17"> </tspan><tspan class="st17">Hosts</tspan><tspan x="2" class="st17" dy="1.2em">-</tspan><tspan class="st17"> </tspan><tspan class="st17">Options</tspan><tspan x="2" class="st17" dy="1.2em">-</tspan><tspan class="st17"> </tspan><tspan class="st17">Products</tspan><tspan x="2" class="st17" dy="1.2em">-</tspan><tspan class="st17"> </tspan><tspan class="st17">Credentials</tspan><tspan x="2" class="st17" dy="1.2em">-</tspan><tspan class="st17"> </tspan><tspan class="st17">Vulnerabilities</tspan><tspan x="2" class="st17" dy="1.2em">-</tspan><tspan class="st17"> </tspan><tspan class="st17">Checks outputs</tspan></text></g><g id="shape53-266" transform="translate(334.819,-128.602)"><title>Dynamic connector.53</title><desc>No</desc><path d="M0 834.46 L0 883.7 L-46.06 883.7 L-46.06 888.33" class="st2"/><rect width="14.074" height="14.4" x="-7.321" y="853.821" class="st6"/><text x="-7.32" y="864.62" class="st7">No</text></g></g></svg>